<?xml version="1.0" encoding="utf-8"?>
<!-- Generator: Adobe Illustrator 24.0.2, SVG Export Plug-In . SVG Version: 6.00 Build 0)  -->
<svg version="1.1" id="Layer_1" xmlns="http://www.w3.org/2000/svg" xmlns:xlink="http://www.w3.org/1999/xlink" x="0px" y="0px"
	 viewBox="0 0 35 35" style="enable-background:new 0 0 35 35;" xml:space="preserve">
<style type="text/css">
	.st0{fill:url(#SVGID_1_);}
</style>
<linearGradient id="SVGID_1_" gradientUnits="userSpaceOnUse" x1="31.7273" y1="19.6301" x2="6.2028" y2="13.9001">
	<stop  offset="0" style="stop-color:#2AD3F8"/>
	<stop  offset="0.9813" style="stop-color:#933CFF"/>
</linearGradient>
<path class="st0" d="M31.8,18.1c-1.4,0-2.5,1.1-2.5,2.5c0,0.3,0.1,0.7,0.2,1l-5.5,5.5c-0.2-0.2-0.4-0.3-0.6-0.4V11.5
	c2.6-0.1,4.7-2.3,4.7-5c0-2.8-2.2-5-5-5s-5,2.2-5,5c0,0.7,0.1,1.3,0.4,1.9l-7,5.5c-1.1-1.1-2.7-1.8-4.4-1.8c-3.5,0-6.3,2.8-6.3,6.3
	c0,3.5,2.8,6.3,6.3,6.3c3.5,0,6.3-2.8,6.3-6.3c0-1.1-0.3-2.2-0.8-3.1l6.9-5.4c0.6,0.6,1.2,1,2,1.3v15.1c-1.9,0.1-3.4,1.7-3.4,3.6
	c0,2,1.6,3.6,3.6,3.6c2,0,3.6-1.6,3.6-3.6c0-0.5-0.1-0.9-0.3-1.4l5.7-5.7c0.3,0.1,0.6,0.2,1,0.2c1.4,0,2.5-1.1,2.5-2.5
	C34.3,19.2,33.2,18.1,31.8,18.1z"/>
</svg>
